<svg width="307" height="105" viewBox="0 0 307 105" fill="none" xmlns="http://www.w3.org/2000/svg">
<path d="M77.9999 66C77.9499 66 77.8999 65.99 77.8399 65.98C77.6899 65.95 77.5399 65.79 77.5099 65.64C77.4399 65.32 77.6099 65.15 77.7199 65.08L77.9999 64.89L78.2799 65.07C78.3499 65.12 78.5099 65.25 78.5099 65.49C78.4999 65.77 78.2799 66 77.9999 66ZM95.3199 58.83C95.2199 58.83 95.1299 58.81 95.0699 58.76C94.7999 58.58 94.7999 58.34 94.8299 58.22L94.8999 57.89L95.2299 57.82C95.2599 57.81 95.2999 57.81 95.3299 57.81C95.4199 57.81 95.5599 57.84 95.6799 57.96C95.8299 58.11 95.8299 58.28 95.8299 58.37C95.8099 58.61 95.6399 58.72 95.5899 58.76C95.5199 58.8 95.4199 58.83 95.3199 58.83ZM60.6799 58.83C60.4999 58.83 60.3599 58.75 60.2499 58.59C60.1599 58.46 60.1499 58.21 60.2399 58.08C60.3499 57.91 60.4999 57.83 60.6799 57.83C60.7099 57.83 60.7499 57.83 60.7799 57.84L61.1099 57.91L61.1799 58.24C61.1999 58.32 61.2099 58.53 61.0399 58.7C60.9099 58.8 60.7699 58.83 60.6799 58.83ZM77.9999 56.46C77.1999 55.28 75.9899 54.39 74.5499 54C73.3999 53.7 72.2999 53.24 71.2699 52.64C70.3399 52.1 69.2899 51.82 68.2199 51.82C67.8299 51.82 67.4499 51.86 67.0699 51.93C67.3399 50.53 67.1099 49.03 66.3599 47.74C65.7599 46.71 65.2999 45.61 64.9999 44.46C64.6199 43.01 63.7199 41.81 62.5399 41.01C63.7199 40.21 64.6099 39 64.9999 37.56C65.2999 36.41 65.7599 35.31 66.3599 34.28C67.1099 32.98 67.3399 31.49 67.0699 30.08C67.4499 30.15 67.8299 30.19 68.2199 30.19C69.2899 30.19 70.3399 29.91 71.2699 29.37C72.2999 28.77 73.3999 28.31 74.5499 28.01C75.9899 27.63 77.1999 26.73 77.9999 25.55C78.7999 26.73 80.0099 27.62 81.4499 28.01C82.5999 28.31 83.6999 28.77 84.7299 29.37C85.6599 29.91 86.7099 30.19 87.7799 30.19C88.1699 30.19 88.5499 30.15 88.9299 30.08C88.6599 31.48 88.8899 32.98 89.6399 34.27C90.2399 35.3 90.6999 36.4 90.9999 37.55C91.3799 39 92.2799 40.2 93.4599 41C92.2799 41.8 91.3899 43.01 90.9999 44.45C90.9399 44.68 90.8799 44.9 90.8099 45.11C90.5199 46.02 90.1299 46.9 89.6399 47.73C88.8899 49.03 88.6599 50.52 88.9299 51.92C88.5499 51.85 88.1699 51.81 87.7799 51.81C86.7099 51.81 85.6599 52.09 84.7299 52.63C83.6999 53.23 82.5999 53.69 81.4499 53.99C80.0099 54.38 78.7999 55.28 77.9999 56.46ZM102.5 41.5C102.26 41.5 102.13 41.34 102.08 41.27L101.89 41L102.08 40.72C102.13 40.65 102.26 40.49 102.5 40.49C102.54 40.49 102.59 40.5 102.64 40.51C102.79 40.54 102.95 40.7 102.98 40.84C103.02 41.03 102.99 41.18 102.89 41.31C102.83 41.38 102.71 41.5 102.5 41.5ZM53.4999 41.5C53.2899 41.5 53.1599 41.38 53.0999 41.31C52.9999 41.18 52.9699 41.03 53.0099 40.84C53.0399 40.69 53.1999 40.54 53.3499 40.51C53.3999 40.5 53.4499 40.49 53.4899 40.49C53.7299 40.49 53.8599 40.65 53.9099 40.72L54.1099 41L53.9199 41.28C53.8799 41.35 53.7499 41.5 53.4999 41.5ZM95.3199 24.18C95.2899 24.18 95.2499 24.18 95.2199 24.17L94.8899 24.1L94.8199 23.77C94.7999 23.69 94.7899 23.48 94.9599 23.31C95.0799 23.19 95.2199 23.16 95.3199 23.16C95.4999 23.16 95.6399 23.24 95.7599 23.4C95.8499 23.53 95.8599 23.78 95.7699 23.91C95.6499 24.1 95.4999 24.18 95.3199 24.18ZM60.6799 24.18C60.5799 24.18 60.4499 24.15 60.3199 24.03C60.1699 23.88 60.1699 23.71 60.1699 23.63C60.1899 23.39 60.3599 23.28 60.4099 23.24C60.4799 23.19 60.5799 23.17 60.6799 23.17C60.7799 23.17 60.8699 23.19 60.9299 23.23C61.1999 23.41 61.1999 23.65 61.1699 23.77L61.0999 24.1L60.7699 24.17C60.7499 24.18 60.7099 24.18 60.6799 24.18ZM77.7199 16.93C77.6499 16.88 77.4999 16.75 77.4999 16.5C77.4999 16.23 77.7199 16 77.9999 16C78.0499 16 78.0999 16.01 78.1599 16.02C78.3099 16.05 78.4599 16.21 78.4899 16.36C78.5599 16.68 78.3899 16.85 78.2799 16.92L77.9999 17.11L77.7199 16.93Z" fill="#797979"/>
<path d="M107.868 39.3413C107.998 39.9013 108.028 40.4713 107.968 41.0413C107.888 41.8113 107.238 42.3813 106.478 42.3813C106.428 42.3813 106.368 42.3813 106.318 42.3713C105.498 42.2813 104.898 41.5413 104.988 40.7213C105.008 40.4913 104.998 40.2513 104.938 40.0113C104.758 39.2013 105.258 38.4013 106.068 38.2113C106.878 38.0213 107.678 38.5313 107.868 39.3413ZM104.048 35.6113C104.868 35.7713 105.388 36.5713 105.218 37.3813C105.048 38.1913 104.248 38.7113 103.438 38.5413C102.438 38.3313 101.688 38.8413 101.328 39.3913C101.048 39.8013 100.578 40.0513 100.078 40.0513H97.3984C95.3084 40.0513 93.4784 38.6613 92.9484 36.6613C92.6084 35.3913 92.0984 34.1613 91.4384 33.0113C90.3984 31.2213 90.6984 28.9313 92.1684 27.4613L94.0784 25.5513C94.4284 25.2013 94.9284 25.0513 95.4284 25.1413C96.0684 25.2713 96.9484 25.1013 97.5084 24.2613C97.9384 23.6113 97.9384 22.7113 97.4884 22.0613C97.1284 21.5513 96.6084 21.2413 95.9984 21.1813C95.4084 21.1413 94.8184 21.3413 94.3984 21.7613C93.9284 22.2413 93.7284 22.9113 93.8584 23.5713C93.9484 24.0613 93.7984 24.5713 93.4484 24.9213L91.5484 26.8313C90.0684 28.3013 87.7784 28.6013 85.9884 27.5613C84.8384 26.8913 83.6084 26.3913 82.3384 26.0513C80.3384 25.5213 78.9384 23.6913 78.9384 21.6013V18.9213C78.9384 18.4213 79.1884 17.9513 79.6084 17.6713C80.1584 17.3113 80.6684 16.5613 80.4584 15.5613C80.3084 14.8413 79.7084 14.2213 78.9884 14.0613C78.3584 13.9113 77.7384 14.0513 77.2484 14.4413C76.7684 14.8213 76.4984 15.3913 76.4984 16.0013C76.4984 16.6713 76.8284 17.3013 77.3884 17.6713C77.8084 17.9513 78.0584 18.4213 78.0584 18.9213V21.6013C78.0584 23.6913 76.6584 25.5213 74.6584 26.0513C73.3884 26.3913 72.1584 26.8913 71.0084 27.5613C69.2184 28.6013 66.9284 28.3013 65.4584 26.8313L63.5484 24.9213C63.1984 24.5713 63.0484 24.0613 63.1384 23.5713C63.2684 22.9313 63.0984 22.0513 62.2584 21.4913C61.6084 21.0513 60.7084 21.0713 60.0584 21.5113C59.5484 21.8713 59.2384 22.3913 59.1784 23.0013C59.1284 23.5913 59.3384 24.1713 59.7584 24.6013C60.2384 25.0713 60.9084 25.2813 61.5684 25.1413C62.0584 25.0513 62.5684 25.2013 62.9184 25.5513L64.8284 27.4613C65.4084 28.0413 65.4084 28.9913 64.8284 29.5813C64.5384 29.8713 64.1484 30.0213 63.7584 30.0213C63.3784 30.0213 62.9984 29.8713 62.6984 29.5813L61.3084 28.1813C59.9484 28.2013 58.6184 27.7013 57.6384 26.7213C56.5884 25.6713 56.0584 24.2113 56.1884 22.7313C56.3284 21.2513 57.1184 19.9013 58.3484 19.0413C60.0084 17.9013 62.2484 17.8813 63.9184 18.9913C65.3884 19.9713 66.2284 21.6013 66.1784 23.3113L67.5784 24.7113C68.0884 25.2213 68.8784 25.3313 69.5084 24.9713C70.8884 24.1713 72.3584 23.5513 73.8884 23.1513C74.5784 22.9713 75.0584 22.3313 75.0584 21.6013V19.6313C74.0684 18.7013 73.4984 17.3913 73.4984 16.0013C73.4984 14.4713 74.1784 13.0513 75.3784 12.0913C76.5784 11.1413 78.1384 10.7813 79.6584 11.1313C81.5084 11.5513 83.0084 13.0913 83.3984 14.9513C83.7584 16.6913 83.1884 18.4513 81.9384 19.6313V21.6013C81.9384 22.3313 82.4184 22.9713 83.1084 23.1513C84.6384 23.5513 86.1084 24.1713 87.4884 24.9613C88.1184 25.3313 88.9084 25.2213 89.4184 24.7013L90.8184 23.3113C90.7784 21.9513 91.2984 20.6213 92.2784 19.6413C93.3284 18.5913 94.7784 18.0613 96.2684 18.2013C97.7484 18.3313 99.0984 19.1213 99.9484 20.3513C101.098 22.0113 101.118 24.2513 100.008 25.9213C99.0284 27.3913 97.3884 28.2413 95.6884 28.1813L94.2984 29.5813C93.7784 30.0913 93.6684 30.8813 94.0284 31.5113C94.8284 32.8813 95.4384 34.3613 95.8484 35.8913C96.0284 36.5813 96.6684 37.0513 97.3984 37.0513H99.3684C100.548 35.8013 102.308 35.2413 104.048 35.6113ZM102.998 42.5013C103.818 42.5013 104.498 43.1813 104.498 44.0013C104.498 44.8313 103.818 45.5013 102.998 45.5013C101.608 45.5013 100.298 44.9313 99.3684 43.9513H97.3984C96.6684 43.9513 96.0284 44.4213 95.8484 45.1113C95.7684 45.4113 95.6884 45.7013 95.5884 46.0013C95.1984 47.2113 94.6784 48.3913 94.0284 49.4913C93.8284 49.8513 93.4884 50.0913 93.1184 50.1913C92.9984 50.2213 92.8684 50.2413 92.7384 50.2413C92.4784 50.2413 92.2184 50.1713 91.9784 50.0413C91.2684 49.6213 91.0184 48.7013 91.4384 47.9913C91.9684 47.0713 92.4084 46.0913 92.7284 45.0813C92.8084 44.8313 92.8884 44.5913 92.9484 44.3413C93.4784 42.3413 95.3084 40.9513 97.3984 40.9513H100.078C100.578 40.9513 101.048 41.2013 101.328 41.6113C101.698 42.1713 102.328 42.5013 102.998 42.5013Z" fill="#7322F8"/>
<path d="M99.3585 54.2812C100.408 55.3312 100.938 56.7912 100.808 58.2712C100.668 59.7512 99.8885 61.0912 98.6485 61.9512C96.9885 63.1012 94.7585 63.1212 93.0785 62.0112C91.6085 61.0312 90.7685 59.4012 90.8185 57.6912L89.4185 56.2913C88.9085 55.7813 88.1085 55.6712 87.4885 56.0312C86.1185 56.8312 84.6385 57.4412 83.1085 57.8512C82.4185 58.0312 81.9385 58.6713 81.9385 59.4013V61.3712C82.9285 62.3012 83.4985 63.6113 83.4985 65.0013C83.4985 66.5313 82.8185 67.9512 81.6185 68.9112C80.7185 69.6212 79.6285 70.0013 78.4985 70.0013C78.1085 70.0013 77.7185 69.9612 77.3385 69.8712C75.4885 69.4512 73.9885 67.9112 73.5985 66.0512C73.2385 64.3112 73.8085 62.5512 75.0585 61.3712V59.4013C75.0585 58.6713 74.5785 58.0312 73.8885 57.8512C72.3585 57.4412 70.8785 56.8312 69.5085 56.0312C68.8885 55.6712 68.0885 55.7812 67.5785 56.3012L66.1785 57.6912C66.2185 59.0512 65.6985 60.3813 64.7185 61.3613C63.6685 62.4113 62.2085 62.9412 60.7285 62.8012C59.2485 62.6712 57.8985 61.8813 57.0485 60.6513C55.8985 58.9913 55.8785 56.7513 56.9885 55.0813C57.9685 53.6113 59.5985 52.7412 61.3085 52.8212L62.6985 51.4212C63.2185 50.9112 63.3285 50.1213 62.9685 49.4913C62.1685 48.1213 61.5585 46.6412 61.1485 45.1112C60.9685 44.4212 60.3285 43.9513 59.5985 43.9513H57.6285C56.6985 44.9313 55.3885 45.5012 53.9985 45.5012C52.4685 45.5012 51.0485 44.8212 50.0885 43.6212C49.1285 42.4212 48.7885 40.8612 49.1285 39.3412C49.5485 37.4912 51.0885 35.9912 52.9485 35.6112C54.6885 35.2412 56.4485 35.8012 57.6285 37.0512H59.5985C60.3285 37.0512 60.9685 36.5812 61.1485 35.8912C61.3285 35.2212 61.9285 34.7812 62.5885 34.7812C62.7185 34.7812 62.8485 34.8012 62.9785 34.8312C63.7785 35.0412 64.2585 35.8612 64.0485 36.6612C63.5185 38.6612 61.6885 40.0512 59.5985 40.0512H56.9185C56.4185 40.0512 55.9485 39.8012 55.6685 39.3912C55.3085 38.8412 54.5585 38.3313 53.5585 38.5413C52.8385 38.6913 52.2185 39.2912 52.0585 40.0112C51.9085 40.6412 52.0485 41.2612 52.4385 41.7512C52.8185 42.2312 53.3885 42.5012 53.9985 42.5012C54.6685 42.5012 55.2985 42.1712 55.6685 41.6112C55.9485 41.2012 56.4185 40.9513 56.9185 40.9513H59.5985C61.6885 40.9513 63.5185 42.3412 64.0485 44.3412C64.3885 45.6112 64.8985 46.8413 65.5585 47.9913C66.5985 49.7813 66.2985 52.0713 64.8285 53.5413L62.9185 55.4513C62.5685 55.8013 62.0585 55.9512 61.5685 55.8612C60.9285 55.7312 60.0485 55.8913 59.4885 56.7413C59.0585 57.3913 59.0685 58.2912 59.5085 58.9412C59.8685 59.4512 60.3885 59.7613 60.9985 59.8213C61.5885 59.8613 62.1685 59.6613 62.5985 59.2413C63.0685 58.7613 63.2685 58.0912 63.1385 57.4312C63.0485 56.9412 63.1985 56.4313 63.5485 56.0813L65.4485 54.1712C66.9285 52.7012 69.2185 52.4012 71.0085 53.4412C72.1585 54.1012 73.3785 54.6113 74.6585 54.9513C76.6585 55.4813 78.0585 57.3113 78.0585 59.4013V62.0813C78.0585 62.5813 77.8085 63.0513 77.3885 63.3313C76.8385 63.6913 76.3285 64.4412 76.5385 65.4412C76.6885 66.1612 77.2885 66.7812 78.0085 66.9412C78.6385 67.0812 79.2585 66.9512 79.7485 66.5612C80.2285 66.1812 80.4985 65.6113 80.4985 65.0013C80.4985 64.3313 80.1685 63.7013 79.6085 63.3313C79.1885 63.0513 78.9385 62.5813 78.9385 62.0813V59.4013C78.9385 57.3113 80.3385 55.4813 82.3385 54.9513C83.6185 54.6113 84.8385 54.1012 85.9885 53.4412C87.7785 52.4012 90.0685 52.7012 91.5385 54.1712L93.4485 56.0813C93.7985 56.4313 93.9485 56.9412 93.8585 57.4312C93.7285 58.0712 93.8885 58.9512 94.7385 59.5112C95.3885 59.9412 96.2985 59.9312 96.9385 59.4912C97.4485 59.1312 97.7585 58.6012 97.8185 58.0012C97.8685 57.4112 97.6585 56.8313 97.2385 56.4013C96.7585 55.9313 96.0885 55.7312 95.4285 55.8612C94.9385 55.9512 94.4285 55.8013 94.0785 55.4513L92.1685 53.5413C91.5885 52.9613 91.5885 52.0112 92.1685 51.4212C92.4485 51.1412 92.8185 50.9912 93.1985 50.9812C93.5885 50.9812 93.9885 51.1212 94.2985 51.4212L95.6885 52.8212C97.0485 52.7912 98.3785 53.3012 99.3585 54.2812ZM91.5085 38.1712C91.6485 38.9312 91.7185 39.7212 91.7185 40.5012C91.7185 41.3312 91.0485 42.0012 90.2185 42.0012C89.3885 42.0012 88.7185 41.3312 88.7185 40.5012C88.7185 39.8912 88.6685 39.2912 88.5585 38.6912C88.4185 37.8812 88.9585 37.1013 89.7685 36.9513C90.5885 36.8113 91.3685 37.3512 91.5085 38.1712ZM88.1985 31.5212C88.7585 32.1212 88.7285 33.0712 88.1185 33.6412C87.8285 33.9012 87.4585 34.0413 87.0985 34.0413C86.6985 34.0413 86.2885 33.8812 85.9985 33.5612C84.0685 31.4712 81.3385 30.2812 78.4985 30.2812C77.6685 30.2812 76.9985 29.6112 76.9985 28.7812C76.9985 27.9513 77.6685 27.2812 78.4985 27.2812C82.1685 27.2813 85.6985 28.8212 88.1985 31.5212Z" fill="#7322F8"/>
<path d="M86.4985 41.2812C86.9985 42.1612 86.9785 43.2012 86.4585 44.0612C85.0585 46.4112 82.5585 47.8112 79.8485 47.8112C79.6985 47.8112 79.5385 47.8112 79.3885 47.8012C75.4285 47.5612 72.2485 44.2812 72.1385 40.3112C72.0685 37.6312 73.3585 35.1512 75.6085 33.6712C76.4385 33.1212 77.5585 33.0312 78.4485 33.4512C79.2185 33.8012 79.7085 34.4712 79.8085 35.2912C79.9385 36.3912 80.6285 39.0312 84.2185 39.8712C85.1985 39.9512 86.0385 40.4712 86.4985 41.2812ZM83.6885 42.8212C79.5385 41.9012 77.5285 39.0312 76.9585 36.3912C75.7785 37.3012 75.0985 38.7112 75.1385 40.2312C75.2085 42.6112 77.1885 44.6612 79.5585 44.8012C81.1985 44.8912 82.7585 44.1512 83.6885 42.8212Z" fill="#7322F8"/>
<path d="M78.4984 50.7212C79.3284 50.7212 79.9984 51.3912 79.9984 52.2212C79.9984 53.0512 79.3284 53.7212 78.4984 53.7212C71.2084 53.7212 65.2784 47.7912 65.2784 40.5012C65.2784 39.6712 65.9484 39.0012 66.7784 39.0012C67.6084 39.0012 68.2784 39.6712 68.2784 40.5012C68.2784 46.1312 72.8584 50.7212 78.4984 50.7212ZM64.7284 31.3412C65.4584 31.7312 65.6984 32.7012 65.3184 33.4312C65.3084 33.4512 65.2984 33.4712 65.2884 33.4912C64.9984 33.9912 64.4484 34.2912 63.8984 34.2912C63.6684 34.2912 63.4284 34.2412 63.2084 34.1212C63.1484 34.0912 63.0884 34.0512 63.0384 34.0112C62.4684 33.5512 62.3084 32.6812 62.6684 32.0212C62.9184 31.5612 63.3784 31.2612 63.8684 31.1912C64.1584 31.1612 64.4584 31.2012 64.7284 31.3412ZM61.0584 13.4712C61.8884 13.4712 62.5584 14.1412 62.5584 14.9712C62.5584 15.8012 61.8884 16.4712 61.0584 16.4712H60.9284L60.8284 16.4812C60.7884 16.4912 60.7384 16.4912 60.6984 16.4912C59.9284 16.4912 59.2784 15.9012 59.2084 15.1212C59.1284 14.3012 59.7384 13.5712 60.5584 13.4912H60.6584C60.8084 13.4712 60.8084 13.4712 60.9584 13.4712H61.0584ZM58.3984 15.2812C58.8084 16.0012 58.5684 16.9212 57.8484 17.3312C55.8684 18.4812 54.6384 20.6112 54.6384 22.8912C54.6384 23.7212 53.9684 24.3912 53.1384 24.3912C52.3184 24.3912 51.6384 23.7212 51.6384 22.8912C51.6384 19.5412 53.4484 16.4112 56.3484 14.7312C57.0684 14.3212 57.9784 14.5712 58.3984 15.2812Z" fill="#7322F8"/>
<path d="M21.744 62.24C17.936 62.24 14.624 61.552 11.808 60.176C8.992 58.768 6.832 56.784 5.328 54.224C3.824 51.664 3.072 48.688 3.072 45.296C3.072 40.592 3.952 36.416 5.712 32.768C7.504 29.12 9.92 26.304 12.96 24.32C16 22.304 19.376 21.296 23.088 21.296C26.544 21.296 29.168 22.192 30.96 23.984C32.752 25.744 33.648 28.08 33.648 30.992C33.648 32.944 33.296 34.512 32.592 35.696C31.92 36.88 30.944 37.472 29.664 37.472C28.768 37.472 28.064 37.264 27.552 36.848C27.04 36.432 26.784 35.824 26.784 35.024C26.784 34.736 26.848 34.208 26.976 33.44C27.168 32.48 27.264 31.712 27.264 31.136C27.264 28.224 25.712 26.768 22.608 26.768C20.496 26.768 18.48 27.456 16.56 28.832C14.64 30.208 13.088 32.24 11.904 34.928C10.72 37.584 10.128 40.752 10.128 44.432C10.128 48.272 11.2 51.248 13.344 53.36C15.488 55.44 18.656 56.48 22.848 56.48C24.928 56.48 27.024 56.224 29.136 55.712C31.28 55.168 33.648 54.352 36.24 53.264C36.72 53.072 37.12 52.976 37.44 52.976C37.952 52.976 38.336 53.168 38.592 53.552C38.848 53.936 38.976 54.432 38.976 55.04C38.976 56.992 37.92 58.432 35.808 59.36C33.536 60.352 31.168 61.088 28.704 61.568C26.272 62.016 23.952 62.24 21.744 62.24Z" fill="url(#paint0_linear)"/>
<path d="M147.472 41.264C148.208 41.264 148.736 41.424 149.056 41.744C149.408 42.064 149.584 42.48 149.584 42.992C149.584 43.824 149.328 44.56 148.816 45.2C148.336 45.84 147.568 46.176 146.512 46.208C143.952 46.272 141.68 46.08 139.696 45.632C137.424 50.4 134.672 54.368 131.44 57.536C128.24 60.672 125.024 62.24 121.792 62.24C118.464 62.24 115.984 60.304 114.352 56.432C112.72 52.56 111.904 47.328 111.904 40.736C111.904 35.104 112.304 30.048 113.104 25.568C113.392 23.904 113.792 22.784 114.304 22.208C114.848 21.6 115.76 21.296 117.04 21.296C119.152 21.296 120.208 22.208 120.208 24.032C120.208 24.224 120.176 24.576 120.112 25.088C119.152 30.848 118.672 36.064 118.672 40.736C118.672 45.632 119.072 49.36 119.872 51.92C120.704 54.448 121.936 55.712 123.568 55.712C125.232 55.712 127.04 54.56 128.992 52.256C130.944 49.952 132.736 47.056 134.368 43.568C132.416 42.352 130.944 40.784 129.952 38.864C128.96 36.912 128.464 34.672 128.464 32.144C128.464 29.616 128.848 27.488 129.616 25.76C130.416 24 131.488 22.688 132.832 21.824C134.208 20.96 135.728 20.528 137.392 20.528C139.44 20.528 141.056 21.264 142.24 22.736C143.456 24.208 144.064 26.224 144.064 28.784C144.064 32.464 143.264 36.48 141.664 40.832C143.36 41.12 145.296 41.264 147.472 41.264ZM133.312 31.808C133.312 34.944 134.32 37.264 136.336 38.768C137.584 35.184 138.208 32.224 138.208 29.888C138.208 28.544 138.032 27.568 137.68 26.96C137.328 26.32 136.848 26 136.24 26C135.376 26 134.672 26.512 134.128 27.536C133.584 28.528 133.312 29.952 133.312 31.808ZM166.321 21.584C167.153 21.584 167.857 21.792 168.433 22.208C169.009 22.592 169.297 23.072 169.297 23.648C169.297 24.672 168.977 25.504 168.337 26.144C167.697 26.752 166.785 27.056 165.601 27.056C163.745 27.056 162.337 27.072 161.377 27.104C161.313 27.488 161.025 29.216 160.513 32.288C159.937 35.712 159.585 37.808 159.457 38.576L158.449 44.864C157.745 49.568 157.185 53.504 156.769 56.672C157.441 56.64 158.353 56.624 159.505 56.624C161.201 56.624 162.353 56.848 162.961 57.296C163.569 57.744 163.873 58.416 163.873 59.312C163.873 60.144 163.537 60.848 162.865 61.424C162.225 62 161.313 62.288 160.129 62.288C159.329 62.288 158.065 62.256 156.337 62.192C154.737 62.128 153.681 62.096 153.169 62.096C151.153 62.096 148.945 62.272 146.545 62.624C145.489 62.784 144.737 62.864 144.289 62.864C143.585 62.864 142.993 62.672 142.513 62.288C142.033 61.904 141.793 61.344 141.793 60.608C141.793 59.456 142.305 58.56 143.329 57.92C144.353 57.28 145.793 56.944 147.649 56.912L149.905 56.864L150.049 55.808C150.817 50.688 151.377 47.072 151.729 44.96L152.785 38.672C153.425 34.96 154.001 31.136 154.513 27.2L150.481 27.248C149.329 27.248 148.529 27.072 148.081 26.72C147.665 26.336 147.457 25.808 147.457 25.136C147.457 22.96 149.025 21.792 152.161 21.632C153.633 21.568 155.425 21.536 157.537 21.536L166.321 21.584ZM181.159 62.24C179.303 62.24 177.207 62.08 174.871 61.76C173.591 61.6 172.711 61.264 172.231 60.752C171.751 60.24 171.543 59.408 171.607 58.256C171.831 55.088 172.359 51.184 173.191 46.544C174.023 41.872 175.031 37.376 176.215 33.056C176.439 32.256 176.887 31.696 177.559 31.376C178.231 31.056 179.111 30.896 180.199 30.896C182.151 30.896 183.127 31.44 183.127 32.528C183.127 32.976 183.031 33.488 182.839 34.064C182.007 36.624 181.175 40.064 180.343 44.384C179.511 48.672 178.919 52.768 178.567 56.672C179.527 56.768 180.615 56.816 181.831 56.816C187.431 56.816 191.607 55.12 194.359 51.728C197.143 48.336 198.535 43.808 198.535 38.144C198.535 34.336 197.447 31.392 195.271 29.312C193.095 27.232 190.023 26.192 186.055 26.192C183.495 26.192 180.951 26.592 178.423 27.392C175.927 28.192 173.671 29.248 171.655 30.56C171.239 30.848 170.791 30.992 170.311 30.992C169.767 30.992 169.335 30.768 169.015 30.32C168.695 29.84 168.535 29.264 168.535 28.592C168.535 27.824 168.663 27.2 168.919 26.72C169.175 26.208 169.607 25.744 170.215 25.328C172.423 23.824 175.015 22.688 177.991 21.92C180.967 21.12 183.831 20.72 186.583 20.72C190.487 20.72 193.863 21.408 196.711 22.784C199.559 24.128 201.751 26.112 203.287 28.736C204.823 31.36 205.591 34.528 205.591 38.24C205.591 43.072 204.631 47.296 202.711 50.912C200.791 54.496 197.991 57.28 194.311 59.264C190.631 61.248 186.247 62.24 181.159 62.24ZM212.249 50.192C211.481 50.256 210.857 50.032 210.377 49.52C209.929 49.008 209.705 48.288 209.705 47.36C209.705 46.496 209.913 45.856 210.329 45.44C210.777 45.024 211.417 44.784 212.249 44.72L222.089 43.76C222.889 43.696 223.497 43.904 223.913 44.384C224.361 44.832 224.585 45.504 224.585 46.4C224.585 48.128 223.753 49.072 222.089 49.232L212.249 50.192ZM234.283 62.24C233.483 62.24 232.779 62 232.171 61.52C231.563 61.04 231.259 60.288 231.259 59.264L231.307 58.736C231.659 55.44 232.075 52.016 232.555 48.464C233.067 44.88 233.499 42.128 233.851 40.208L230.107 41.264L229.531 41.36C228.923 41.36 228.443 41.12 228.091 40.64C227.739 40.16 227.563 39.616 227.563 39.008L227.611 38.576C227.675 37.968 227.867 37.472 228.187 37.088C228.507 36.704 229.115 36.32 230.011 35.936C230.939 35.552 232.315 35.136 234.139 34.688L236.155 34.208C236.891 34.048 237.499 33.968 237.979 33.968C238.907 33.968 239.595 34.208 240.043 34.688C240.523 35.168 240.763 35.84 240.763 36.704C240.763 37.088 240.715 37.504 240.619 37.952C240.107 40.448 239.131 47.552 237.691 59.264C237.435 61.248 236.299 62.24 234.283 62.24ZM256.986 33.968C260.282 33.968 262.794 35.008 264.522 37.088C266.282 39.136 267.162 41.984 267.162 45.632C267.162 48.896 266.602 51.792 265.482 54.32C264.394 56.816 262.826 58.768 260.778 60.176C258.762 61.552 256.394 62.24 253.674 62.24C251.21 62.24 249.178 61.68 247.578 60.56C246.01 59.408 245.114 57.904 244.89 56.048L244.842 55.52C244.842 54.688 245.098 54.048 245.61 53.6C246.154 53.12 246.906 52.88 247.866 52.88C248.57 52.88 249.13 53.072 249.546 53.456C249.994 53.808 250.378 54.432 250.698 55.328C250.954 56 251.37 56.528 251.946 56.912C252.554 57.296 253.306 57.488 254.202 57.488C256.058 57.488 257.562 56.768 258.714 55.328C259.898 53.856 260.634 51.68 260.922 48.8C260.09 49.76 259.146 50.448 258.09 50.864C257.034 51.248 255.866 51.44 254.586 51.44C252.986 51.44 251.546 51.104 250.266 50.432C249.018 49.76 248.042 48.832 247.338 47.648C246.634 46.432 246.282 45.088 246.282 43.616C246.282 41.792 246.698 40.16 247.53 38.72C248.394 37.248 249.626 36.096 251.226 35.264C252.858 34.4 254.778 33.968 256.986 33.968ZM256.026 46.64C257.402 46.64 258.474 46.256 259.242 45.488C260.01 44.72 260.394 43.696 260.394 42.416C260.394 41.264 260.074 40.352 259.434 39.68C258.794 39.008 257.898 38.672 256.746 38.672C255.466 38.672 254.426 39.088 253.626 39.92C252.858 40.72 252.474 41.776 252.474 43.088C252.474 44.176 252.794 45.04 253.434 45.68C254.074 46.32 254.938 46.64 256.026 46.64Z" fill="url(#paint1_linear)"/>
<defs>
<linearGradient id="paint0_linear" x1="28.5" y1="0" x2="28.5" y2="105" gradientUnits="userSpaceOnUse">
<stop offset="0.411458" stop-color="#8A0202"/>
<stop offset="0.666667" stop-color="#04FF0E" stop-opacity="0.45"/>
<stop offset="0.875" stop-color="#428B09" stop-opacity="0.702083"/>
</linearGradient>
<linearGradient id="paint1_linear" x1="206.5" y1="0" x2="206.5" y2="105" gradientUnits="userSpaceOnUse">
<stop offset="0.411458" stop-color="#8A0202"/>
<stop offset="0.666667" stop-color="#04FF0E" stop-opacity="0.45"/>
<stop offset="0.875" stop-color="#428B09" stop-opacity="0.702083"/>
</linearGradient>
</defs>
</svg>
