<svg width="64" height="64" viewBox="0 0 64 64" fill="none" xmlns="http://www.w3.org/2000/svg">
<path d="M31.9999 57C31.9499 57 31.8999 56.99 31.8399 56.98C31.6899 56.95 31.5399 56.79 31.5099 56.64C31.4399 56.32 31.6099 56.15 31.7199 56.08L31.9999 55.89L32.2799 56.07C32.3499 56.12 32.5099 56.25 32.5099 56.49C32.4999 56.77 32.2799 57 31.9999 57ZM49.3199 49.83C49.2199 49.83 49.1299 49.81 49.0699 49.76C48.7999 49.58 48.7999 49.34 48.8299 49.22L48.8999 48.89L49.2299 48.82C49.2599 48.81 49.2999 48.81 49.3299 48.81C49.4199 48.81 49.5599 48.84 49.6799 48.96C49.8299 49.11 49.8299 49.28 49.8299 49.37C49.8099 49.61 49.6399 49.72 49.5899 49.76C49.5199 49.8 49.4199 49.83 49.3199 49.83ZM14.6799 49.83C14.4999 49.83 14.3599 49.75 14.2499 49.59C14.1599 49.46 14.1499 49.21 14.2399 49.08C14.3499 48.91 14.4999 48.83 14.6799 48.83C14.7099 48.83 14.7499 48.83 14.7799 48.84L15.1099 48.91L15.1799 49.24C15.1999 49.32 15.2099 49.53 15.0399 49.7C14.9099 49.8 14.7699 49.83 14.6799 49.83ZM31.9999 47.46C31.1999 46.28 29.9899 45.39 28.5499 45C27.3999 44.7 26.2999 44.24 25.2699 43.64C24.3399 43.1 23.2899 42.82 22.2199 42.82C21.8299 42.82 21.4499 42.86 21.0699 42.93C21.3399 41.53 21.1099 40.03 20.3599 38.74C19.7599 37.71 19.2999 36.61 18.9999 35.46C18.6199 34.01 17.7199 32.81 16.5399 32.01C17.7199 31.21 18.6099 30 18.9999 28.56C19.2999 27.41 19.7599 26.31 20.3599 25.28C21.1099 23.98 21.3399 22.49 21.0699 21.08C21.4499 21.15 21.8299 21.19 22.2199 21.19C23.2899 21.19 24.3399 20.91 25.2699 20.37C26.2999 19.77 27.3999 19.31 28.5499 19.01C29.9899 18.63 31.1999 17.73 31.9999 16.55C32.7999 17.73 34.0099 18.62 35.4499 19.01C36.5999 19.31 37.6999 19.77 38.7299 20.37C39.6599 20.91 40.7099 21.19 41.7799 21.19C42.1699 21.19 42.5499 21.15 42.9299 21.08C42.6599 22.48 42.8899 23.98 43.6399 25.27C44.2399 26.3 44.6999 27.4 44.9999 28.55C45.3799 30 46.2799 31.2 47.4599 32C46.2799 32.8 45.3899 34.01 44.9999 35.45C44.9399 35.68 44.8799 35.9 44.8099 36.11C44.5199 37.02 44.1299 37.9 43.6399 38.73C42.8899 40.03 42.6599 41.52 42.9299 42.92C42.5499 42.85 42.1699 42.81 41.7799 42.81C40.7099 42.81 39.6599 43.09 38.7299 43.63C37.6999 44.23 36.5999 44.69 35.4499 44.99C34.0099 45.38 32.7999 46.28 31.9999 47.46ZM56.4999 32.5C56.2599 32.5 56.1299 32.34 56.0799 32.27L55.8899 32L56.0799 31.72C56.1299 31.65 56.2599 31.49 56.4999 31.49C56.5399 31.49 56.5899 31.5 56.6399 31.51C56.7899 31.54 56.9499 31.7 56.9799 31.84C57.0199 32.03 56.9899 32.18 56.8899 32.31C56.8299 32.38 56.7099 32.5 56.4999 32.5ZM7.49994 32.5C7.28994 32.5 7.15994 32.38 7.09994 32.31C6.99994 32.18 6.96994 32.03 7.00994 31.84C7.03994 31.69 7.19994 31.54 7.34994 31.51C7.39994 31.5 7.44994 31.49 7.48994 31.49C7.72994 31.49 7.85994 31.65 7.90994 31.72L8.10994 32L7.91994 32.28C7.87994 32.35 7.74994 32.5 7.49994 32.5ZM49.3199 15.18C49.2899 15.18 49.2499 15.18 49.2199 15.17L48.8899 15.1L48.8199 14.77C48.7999 14.69 48.7899 14.48 48.9599 14.31C49.0799 14.19 49.2199 14.16 49.3199 14.16C49.4999 14.16 49.6399 14.24 49.7599 14.4C49.8499 14.53 49.8599 14.78 49.7699 14.91C49.6499 15.1 49.4999 15.18 49.3199 15.18ZM14.6799 15.18C14.5799 15.18 14.4499 15.15 14.3199 15.03C14.1699 14.88 14.1699 14.71 14.1699 14.63C14.1899 14.39 14.3599 14.28 14.4099 14.24C14.4799 14.19 14.5799 14.17 14.6799 14.17C14.7799 14.17 14.8699 14.19 14.9299 14.23C15.1999 14.41 15.1999 14.65 15.1699 14.77L15.0999 15.1L14.7699 15.17C14.7499 15.18 14.7099 15.18 14.6799 15.18ZM31.7199 7.93C31.6499 7.88 31.4999 7.75 31.4999 7.5C31.4999 7.23 31.7199 7 31.9999 7C32.0499 7 32.0999 7.01 32.1599 7.02C32.3099 7.05 32.4599 7.21 32.4899 7.36C32.5599 7.68 32.3899 7.85 32.2799 7.92L31.9999 8.11L31.7199 7.93Z" fill="#797979"/>
<path d="M61.8684 30.3413C61.9984 30.9013 62.0284 31.4713 61.9684 32.0413C61.8884 32.8113 61.2384 33.3813 60.4784 33.3813C60.4284 33.3813 60.3684 33.3813 60.3184 33.3713C59.4984 33.2813 58.8984 32.5413 58.9884 31.7213C59.0084 31.4913 58.9984 31.2513 58.9384 31.0113C58.7584 30.2013 59.2584 29.4013 60.0684 29.2113C60.8784 29.0213 61.6784 29.5313 61.8684 30.3413ZM58.0484 26.6113C58.8684 26.7713 59.3884 27.5713 59.2184 28.3813C59.0484 29.1913 58.2484 29.7113 57.4384 29.5413C56.4384 29.3313 55.6884 29.8413 55.3284 30.3913C55.0484 30.8013 54.5784 31.0513 54.0784 31.0513H51.3984C49.3084 31.0513 47.4784 29.6613 46.9484 27.6613C46.6084 26.3913 46.0984 25.1613 45.4384 24.0113C44.3984 22.2213 44.6984 19.9313 46.1684 18.4613L48.0784 16.5513C48.4284 16.2013 48.9284 16.0513 49.4284 16.1413C50.0684 16.2713 50.9484 16.1013 51.5084 15.2613C51.9384 14.6113 51.9384 13.7113 51.4884 13.0613C51.1284 12.5513 50.6084 12.2413 49.9984 12.1813C49.4084 12.1413 48.8184 12.3413 48.3984 12.7613C47.9284 13.2413 47.7284 13.9113 47.8584 14.5713C47.9484 15.0613 47.7984 15.5713 47.4484 15.9213L45.5484 17.8313C44.0684 19.3013 41.7784 19.6013 39.9884 18.5613C38.8384 17.8913 37.6084 17.3913 36.3384 17.0513C34.3384 16.5213 32.9384 14.6913 32.9384 12.6013V9.92126C32.9384 9.42126 33.1884 8.95126 33.6084 8.67126C34.1584 8.31126 34.6684 7.56126 34.4584 6.56126C34.3084 5.84126 33.7084 5.22126 32.9884 5.06126C32.3584 4.91126 31.7384 5.05126 31.2484 5.44126C30.7684 5.82126 30.4984 6.39126 30.4984 7.00126C30.4984 7.67126 30.8284 8.30126 31.3884 8.67126C31.8084 8.95126 32.0584 9.42126 32.0584 9.92126V12.6013C32.0584 14.6913 30.6584 16.5213 28.6584 17.0513C27.3884 17.3913 26.1584 17.8913 25.0084 18.5613C23.2184 19.6013 20.9284 19.3013 19.4584 17.8313L17.5484 15.9213C17.1984 15.5713 17.0484 15.0613 17.1384 14.5713C17.2684 13.9313 17.0984 13.0513 16.2584 12.4913C15.6084 12.0513 14.7084 12.0713 14.0584 12.5113C13.5484 12.8713 13.2384 13.3913 13.1784 14.0013C13.1284 14.5913 13.3384 15.1713 13.7584 15.6013C14.2384 16.0713 14.9084 16.2813 15.5684 16.1413C16.0584 16.0513 16.5684 16.2013 16.9184 16.5513L18.8284 18.4613C19.4084 19.0413 19.4084 19.9913 18.8284 20.5813C18.5384 20.8713 18.1484 21.0213 17.7584 21.0213C17.3784 21.0213 16.9984 20.8713 16.6984 20.5813L15.3084 19.1813C13.9484 19.2013 12.6184 18.7013 11.6384 17.7213C10.5884 16.6713 10.0584 15.2113 10.1884 13.7313C10.3284 12.2513 11.1184 10.9013 12.3484 10.0413C14.0084 8.90126 16.2484 8.88126 17.9184 9.99126C19.3884 10.9713 20.2284 12.6013 20.1784 14.3113L21.5784 15.7113C22.0884 16.2213 22.8784 16.3313 23.5084 15.9713C24.8884 15.1713 26.3584 14.5513 27.8884 14.1513C28.5784 13.9713 29.0584 13.3313 29.0584 12.6013V10.6313C28.0684 9.70126 27.4984 8.39126 27.4984 7.00126C27.4984 5.47126 28.1784 4.05126 29.3784 3.09126C30.5784 2.14126 32.1384 1.78126 33.6584 2.13126C35.5084 2.55126 37.0084 4.09126 37.3984 5.95126C37.7584 7.69126 37.1884 9.45126 35.9384 10.6313V12.6013C35.9384 13.3313 36.4184 13.9713 37.1084 14.1513C38.6384 14.5513 40.1084 15.1713 41.4884 15.9613C42.1184 16.3313 42.9084 16.2213 43.4184 15.7013L44.8184 14.3113C44.7784 12.9513 45.2984 11.6213 46.2784 10.6413C47.3284 9.59126 48.7784 9.06126 50.2684 9.20126C51.7484 9.33126 53.0984 10.1213 53.9484 11.3513C55.0984 13.0113 55.1184 15.2513 54.0084 16.9213C53.0284 18.3913 51.3884 19.2413 49.6884 19.1813L48.2984 20.5813C47.7784 21.0913 47.6684 21.8813 48.0284 22.5113C48.8284 23.8813 49.4384 25.3613 49.8484 26.8913C50.0284 27.5813 50.6684 28.0513 51.3984 28.0513H53.3684C54.5484 26.8013 56.3084 26.2413 58.0484 26.6113ZM56.9984 33.5013C57.8184 33.5013 58.4984 34.1813 58.4984 35.0013C58.4984 35.8313 57.8184 36.5013 56.9984 36.5013C55.6084 36.5013 54.2984 35.9313 53.3684 34.9513H51.3984C50.6684 34.9513 50.0284 35.4213 49.8484 36.1113C49.7684 36.4113 49.6884 36.7013 49.5884 37.0013C49.1984 38.2113 48.6784 39.3913 48.0284 40.4913C47.8284 40.8513 47.4884 41.0913 47.1184 41.1913C46.9984 41.2213 46.8684 41.2413 46.7384 41.2413C46.4784 41.2413 46.2184 41.1713 45.9784 41.0413C45.2684 40.6213 45.0184 39.7013 45.4384 38.9913C45.9684 38.0713 46.4084 37.0913 46.7284 36.0813C46.8084 35.8313 46.8884 35.5913 46.9484 35.3413C47.4784 33.3413 49.3084 31.9513 51.3984 31.9513H54.0784C54.5784 31.9513 55.0484 32.2013 55.3284 32.6113C55.6984 33.1713 56.3284 33.5013 56.9984 33.5013Z" fill="#851414"/>
<path d="M53.3585 45.2812C54.4085 46.3312 54.9385 47.7912 54.8085 49.2712C54.6685 50.7512 53.8885 52.0912 52.6485 52.9512C50.9885 54.1012 48.7585 54.1212 47.0785 53.0112C45.6085 52.0312 44.7685 50.4012 44.8185 48.6912L43.4185 47.2913C42.9085 46.7813 42.1085 46.6712 41.4885 47.0312C40.1185 47.8312 38.6385 48.4412 37.1085 48.8512C36.4185 49.0312 35.9385 49.6713 35.9385 50.4013V52.3712C36.9285 53.3012 37.4985 54.6113 37.4985 56.0013C37.4985 57.5313 36.8185 58.9512 35.6185 59.9112C34.7185 60.6212 33.6285 61.0013 32.4985 61.0013C32.1085 61.0013 31.7185 60.9612 31.3385 60.8712C29.4885 60.4512 27.9885 58.9112 27.5985 57.0512C27.2385 55.3112 27.8085 53.5512 29.0585 52.3712V50.4013C29.0585 49.6713 28.5785 49.0312 27.8885 48.8512C26.3585 48.4412 24.8785 47.8312 23.5085 47.0312C22.8885 46.6712 22.0885 46.7812 21.5785 47.3012L20.1785 48.6912C20.2185 50.0512 19.6985 51.3813 18.7185 52.3613C17.6685 53.4113 16.2085 53.9412 14.7285 53.8012C13.2485 53.6712 11.8985 52.8813 11.0485 51.6513C9.89845 49.9913 9.87845 47.7513 10.9885 46.0813C11.9685 44.6113 13.5985 43.7412 15.3085 43.8212L16.6985 42.4212C17.2185 41.9112 17.3285 41.1213 16.9685 40.4913C16.1685 39.1213 15.5585 37.6412 15.1485 36.1112C14.9685 35.4212 14.3285 34.9513 13.5985 34.9513H11.6285C10.6985 35.9313 9.38845 36.5012 7.99845 36.5012C6.46845 36.5012 5.04845 35.8212 4.08845 34.6212C3.12845 33.4212 2.78845 31.8612 3.12845 30.3412C3.54845 28.4912 5.08845 26.9912 6.94845 26.6112C8.68845 26.2412 10.4485 26.8012 11.6285 28.0512H13.5985C14.3285 28.0512 14.9685 27.5812 15.1485 26.8912C15.3285 26.2212 15.9285 25.7812 16.5885 25.7812C16.7185 25.7812 16.8485 25.8012 16.9785 25.8312C17.7785 26.0412 18.2585 26.8612 18.0485 27.6612C17.5185 29.6612 15.6885 31.0512 13.5985 31.0512H10.9185C10.4185 31.0512 9.94845 30.8012 9.66845 30.3912C9.30845 29.8412 8.55845 29.3313 7.55845 29.5413C6.83845 29.6913 6.21845 30.2912 6.05845 31.0112C5.90845 31.6412 6.04845 32.2612 6.43845 32.7512C6.81845 33.2312 7.38845 33.5012 7.99845 33.5012C8.66845 33.5012 9.29845 33.1712 9.66845 32.6112C9.94845 32.2012 10.4185 31.9513 10.9185 31.9513H13.5985C15.6885 31.9513 17.5185 33.3412 18.0485 35.3412C18.3885 36.6112 18.8985 37.8413 19.5585 38.9913C20.5985 40.7813 20.2985 43.0713 18.8285 44.5413L16.9185 46.4513C16.5685 46.8013 16.0585 46.9512 15.5685 46.8612C14.9285 46.7312 14.0485 46.8913 13.4885 47.7413C13.0585 48.3913 13.0685 49.2912 13.5085 49.9412C13.8685 50.4512 14.3885 50.7613 14.9985 50.8213C15.5885 50.8613 16.1685 50.6613 16.5985 50.2413C17.0685 49.7613 17.2685 49.0912 17.1385 48.4312C17.0485 47.9412 17.1985 47.4313 17.5485 47.0813L19.4485 45.1712C20.9285 43.7012 23.2185 43.4012 25.0085 44.4412C26.1585 45.1012 27.3785 45.6113 28.6585 45.9513C30.6585 46.4813 32.0585 48.3113 32.0585 50.4013V53.0813C32.0585 53.5813 31.8085 54.0513 31.3885 54.3313C30.8385 54.6913 30.3285 55.4412 30.5385 56.4412C30.6885 57.1612 31.2885 57.7812 32.0085 57.9412C32.6385 58.0812 33.2585 57.9512 33.7485 57.5612C34.2285 57.1812 34.4985 56.6113 34.4985 56.0013C34.4985 55.3313 34.1685 54.7013 33.6085 54.3313C33.1885 54.0513 32.9385 53.5813 32.9385 53.0813V50.4013C32.9385 48.3113 34.3385 46.4813 36.3385 45.9513C37.6185 45.6113 38.8385 45.1012 39.9885 44.4412C41.7785 43.4012 44.0685 43.7012 45.5385 45.1712L47.4485 47.0813C47.7985 47.4313 47.9485 47.9412 47.8585 48.4312C47.7285 49.0712 47.8885 49.9512 48.7385 50.5112C49.3885 50.9412 50.2985 50.9312 50.9385 50.4912C51.4485 50.1312 51.7585 49.6012 51.8185 49.0012C51.8685 48.4112 51.6585 47.8313 51.2385 47.4013C50.7585 46.9313 50.0885 46.7312 49.4285 46.8612C48.9385 46.9512 48.4285 46.8013 48.0785 46.4513L46.1685 44.5413C45.5885 43.9613 45.5885 43.0112 46.1685 42.4212C46.4485 42.1412 46.8185 41.9912 47.1985 41.9812C47.5885 41.9812 47.9885 42.1212 48.2985 42.4212L49.6885 43.8212C51.0485 43.7912 52.3785 44.3012 53.3585 45.2812ZM45.5085 29.1712C45.6485 29.9312 45.7185 30.7212 45.7185 31.5012C45.7185 32.3312 45.0485 33.0012 44.2185 33.0012C43.3885 33.0012 42.7185 32.3312 42.7185 31.5012C42.7185 30.8912 42.6685 30.2912 42.5585 29.6912C42.4185 28.8812 42.9585 28.1013 43.7685 27.9513C44.5885 27.8113 45.3685 28.3512 45.5085 29.1712ZM42.1985 22.5212C42.7585 23.1212 42.7285 24.0712 42.1185 24.6412C41.8285 24.9012 41.4585 25.0413 41.0985 25.0413C40.6985 25.0413 40.2885 24.8812 39.9985 24.5612C38.0685 22.4712 35.3385 21.2812 32.4985 21.2812C31.6685 21.2812 30.9985 20.6112 30.9985 19.7812C30.9985 18.9513 31.6685 18.2812 32.4985 18.2812C36.1685 18.2813 39.6985 19.8212 42.1985 22.5212Z" fill="#851414"/>
<path d="M40.4985 32.2812C40.9985 33.1612 40.9785 34.2012 40.4585 35.0612C39.0585 37.4112 36.5585 38.8112 33.8485 38.8112C33.6985 38.8112 33.5385 38.8112 33.3885 38.8012C29.4285 38.5612 26.2485 35.2812 26.1385 31.3112C26.0685 28.6312 27.3585 26.1512 29.6085 24.6712C30.4385 24.1212 31.5585 24.0312 32.4485 24.4512C33.2185 24.8012 33.7085 25.4712 33.8085 26.2912C33.9385 27.3912 34.6285 30.0312 38.2185 30.8712C39.1985 30.9512 40.0385 31.4712 40.4985 32.2812ZM37.6885 33.8212C33.5385 32.9012 31.5285 30.0312 30.9585 27.3912C29.7785 28.3012 29.0985 29.7112 29.1385 31.2312C29.2085 33.6112 31.1885 35.6612 33.5585 35.8012C35.1985 35.8912 36.7585 35.1512 37.6885 33.8212Z" fill="#851414"/>
<path d="M32.4984 41.7212C33.3284 41.7212 33.9984 42.3912 33.9984 43.2212C33.9984 44.0512 33.3284 44.7212 32.4984 44.7212C25.2084 44.7212 19.2784 38.7912 19.2784 31.5012C19.2784 30.6712 19.9484 30.0012 20.7784 30.0012C21.6084 30.0012 22.2784 30.6712 22.2784 31.5012C22.2784 37.1312 26.8584 41.7212 32.4984 41.7212ZM18.7284 22.3412C19.4584 22.7312 19.6984 23.7012 19.3184 24.4312C19.3084 24.4512 19.2984 24.4712 19.2884 24.4912C18.9984 24.9912 18.4484 25.2912 17.8984 25.2912C17.6684 25.2912 17.4284 25.2412 17.2084 25.1212C17.1484 25.0912 17.0884 25.0512 17.0384 25.0112C16.4684 24.5512 16.3084 23.6812 16.6684 23.0212C16.9184 22.5612 17.3784 22.2612 17.8684 22.1912C18.1584 22.1612 18.4584 22.2012 18.7284 22.3412ZM15.0584 4.47119C15.8884 4.47119 16.5584 5.14119 16.5584 5.97119C16.5584 6.80119 15.8884 7.47119 15.0584 7.47119H14.9284L14.8284 7.48119C14.7884 7.49119 14.7384 7.49119 14.6984 7.49119C13.9284 7.49119 13.2784 6.90119 13.2084 6.12119C13.1284 5.30119 13.7384 4.57119 14.5584 4.49119H14.6584C14.8084 4.47119 14.8084 4.47119 14.9584 4.47119H15.0584ZM12.3984 6.28119C12.8084 7.00119 12.5684 7.92119 11.8484 8.33119C9.86843 9.48119 8.63843 11.6112 8.63843 13.8912C8.63843 14.7212 7.96843 15.3912 7.13843 15.3912C6.31843 15.3912 5.63843 14.7212 5.63843 13.8912C5.63843 10.5412 7.44843 7.41119 10.3484 5.73119C11.0684 5.32119 11.9784 5.57119 12.3984 6.28119Z" fill="#851414"/>
</svg>
